<?xml version="1.0" encoding="UTF-8" standalone="no"?>
<!-- Created with matplotlib (https://matplotlib.org/) -->

<svg
   xmlns:dc="http://purl.org/dc/elements/1.1/"
   xmlns:cc="http://creativecommons.org/ns#"
   xmlns:rdf="http://www.w3.org/1999/02/22-rdf-syntax-ns#"
   xmlns:svg="http://www.w3.org/2000/svg"
   xmlns="http://www.w3.org/2000/svg"
   xmlns:xlink="http://www.w3.org/1999/xlink"
   xmlns:sodipodi="http://sodipodi.sourceforge.net/DTD/sodipodi-0.dtd"
   xmlns:inkscape="http://www.inkscape.org/namespaces/inkscape"
   height="360pt"
   version="1.1"
   viewBox="0 0 360 360"
   width="360pt"
   id="svg16280"
   sodipodi:docname="avg_time_box.svg"
   inkscape:export-filename="/home/brett/GitProjects/dissertation/SC_Journal/Figures/avg_time_box.png"
   inkscape:export-xdpi="300"
   inkscape:export-ydpi="300"
   inkscape:version="0.92.3 (unknown)">
  <metadata
     id="metadata16284">
    <rdf:RDF>
      <cc:Work
         rdf:about="">
        <dc:format>image/svg+xml</dc:format>
        <dc:type
           rdf:resource="http://purl.org/dc/dcmitype/StillImage" />
      </cc:Work>
    </rdf:RDF>
  </metadata>
  <sodipodi:namedview
     pagecolor="#ffffff"
     bordercolor="#666666"
     borderopacity="1"
     objecttolerance="10"
     gridtolerance="10"
     guidetolerance="10"
     inkscape:pageopacity="0"
     inkscape:pageshadow="2"
     inkscape:window-width="1864"
     inkscape:window-height="1030"
     id="namedview16282"
     showgrid="false"
     inkscape:zoom="1.3906433"
     inkscape:cx="235.47704"
     inkscape:cy="211.91804"
     inkscape:window-x="0"
     inkscape:window-y="18"
     inkscape:window-maximized="0"
     inkscape:current-layer="svg16280" />
  <defs
     id="defs15829">
    <style
       type="text/css"
       id="style15827">
*{stroke-linecap:butt;stroke-linejoin:round;}
  </style>
  </defs>
  <g
     id="figure_1">
    <g
       id="patch_1">
      <path
         d="M 0 360  L 360 360  L 360 0  L 0 0  z "
         style="fill:none;"
         id="path15831" />
    </g>
    <g
       id="axes_1">
      <g
         id="patch_2">
        <path
           d="M 67.79 313.72  L 346.68 313.72  L 346.68 13.32  L 67.79 13.32  z "
           style="fill:none;"
           id="path15834" />
      </g>
      <g
         id="matplotlib.axis_1">
        <g
           id="xtick_1">
          <g
             id="line2d_1">
            <defs
               id="defs15838">
              <path
                 d="M 0 0  L 0 3.5  "
                 id="mf8790b6952"
                 style="stroke:#000000;stroke-width:0.8;" />
            </defs>
            <g
               id="g15842">
              <use
                 style="stroke:#000000;stroke-width:0.8;"
                 x="102.65125"
                 xlink:href="#mf8790b6952"
                 y="313.72"
                 id="use15840" />
            </g>
          </g>
          <g
             id="text_1">
            <!-- 1 -->
            <defs
               id="defs15846">
              <path
                 d="M 12.40625 8.296875  L 28.515625 8.296875  L 28.515625 63.921875  L 10.984375 60.40625  L 10.984375 69.390625  L 28.421875 72.90625  L 38.28125 72.90625  L 38.28125 8.296875  L 54.390625 8.296875  L 54.390625 0  L 12.40625 0  z "
                 id="DejaVuSans-49" />
            </defs>
            <g
               transform="translate(99.47 328.318438)scale(0.1 -0.1)"
               id="g15850">
              <use
                 xlink:href="#DejaVuSans-49"
                 id="use15848" />
            </g>
          </g>
        </g>
        <g
           id="xtick_2">
          <g
             id="line2d_2">
            <g
               id="g15856">
              <use
                 style="stroke:#000000;stroke-width:0.8;"
                 x="172.37375"
                 xlink:href="#mf8790b6952"
                 y="313.72"
                 id="use15854" />
            </g>
          </g>
          <g
             id="text_2">
            <!-- 2 -->
            <defs
               id="defs15860">
              <path
                 d="M 19.1875 8.296875  L 53.609375 8.296875  L 53.609375 0  L 7.328125 0  L 7.328125 8.296875  Q 12.9375 14.109375 22.625 23.890625  Q 32.328125 33.6875 34.8125 36.53125  Q 39.546875 41.84375 41.421875 45.53125  Q 43.3125 49.21875 43.3125 52.78125  Q 43.3125 58.59375 39.234375 62.25  Q 35.15625 65.921875 28.609375 65.921875  Q 23.96875 65.921875 18.8125 64.3125  Q 13.671875 62.703125 7.8125 59.421875  L 7.8125 69.390625  Q 13.765625 71.78125 18.9375 73  Q 24.125 74.21875 28.421875 74.21875  Q 39.75 74.21875 46.484375 68.546875  Q 53.21875 62.890625 53.21875 53.421875  Q 53.21875 48.921875 51.53125 44.890625  Q 49.859375 40.875 45.40625 35.40625  Q 44.1875 33.984375 37.640625 27.21875  Q 31.109375 20.453125 19.1875 8.296875  z "
                 id="DejaVuSans-50" />
            </defs>
            <g
               transform="translate(169.1925 328.318438)scale(0.1 -0.1)"
               id="g15864">
              <use
                 xlink:href="#DejaVuSans-50"
                 id="use15862" />
            </g>
          </g>
        </g>
        <g
           id="xtick_3">
          <g
             id="line2d_3">
            <g
               id="g15870">
              <use
                 style="stroke:#000000;stroke-width:0.8;"
                 x="242.09625"
                 xlink:href="#mf8790b6952"
                 y="313.72"
                 id="use15868" />
            </g>
          </g>
          <g
             id="text_3">
            <!-- 3 -->
            <defs
               id="defs15874">
              <path
                 d="M 40.578125 39.3125  Q 47.65625 37.796875 51.625 33  Q 55.609375 28.21875 55.609375 21.1875  Q 55.609375 10.40625 48.1875 4.484375  Q 40.765625 -1.421875 27.09375 -1.421875  Q 22.515625 -1.421875 17.65625 -0.515625  Q 12.796875 0.390625 7.625 2.203125  L 7.625 11.71875  Q 11.71875 9.328125 16.59375 8.109375  Q 21.484375 6.890625 26.8125 6.890625  Q 36.078125 6.890625 40.9375 10.546875  Q 45.796875 14.203125 45.796875 21.1875  Q 45.796875 27.640625 41.28125 31.265625  Q 36.765625 34.90625 28.71875 34.90625  L 20.21875 34.90625  L 20.21875 43.015625  L 29.109375 43.015625  Q 36.375 43.015625 40.234375 45.921875  Q 44.09375 48.828125 44.09375 54.296875  Q 44.09375 59.90625 40.109375 62.90625  Q 36.140625 65.921875 28.71875 65.921875  Q 24.65625 65.921875 20.015625 65.03125  Q 15.375 64.15625 9.8125 62.3125  L 9.8125 71.09375  Q 15.4375 72.65625 20.34375 73.4375  Q 25.25 74.21875 29.59375 74.21875  Q 40.828125 74.21875 47.359375 69.109375  Q 53.90625 64.015625 53.90625 55.328125  Q 53.90625 49.265625 50.4375 45.09375  Q 46.96875 40.921875 40.578125 39.3125  z "
                 id="DejaVuSans-51" />
            </defs>
            <g
               transform="translate(238.915 328.318438)scale(0.1 -0.1)"
               id="g15878">
              <use
                 xlink:href="#DejaVuSans-51"
                 id="use15876" />
            </g>
          </g>
        </g>
        <g
           id="xtick_4">
          <g
             id="line2d_4">
            <g
               id="g15884">
              <use
                 style="stroke:#000000;stroke-width:0.8;"
                 x="311.81875"
                 xlink:href="#mf8790b6952"
                 y="313.72"
                 id="use15882" />
            </g>
          </g>
          <g
             id="text_4">
            <!-- 4 -->
            <defs
               id="defs15888">
              <path
                 d="M 37.796875 64.3125  L 12.890625 25.390625  L 37.796875 25.390625  z M 35.203125 72.90625  L 47.609375 72.90625  L 47.609375 25.390625  L 58.015625 25.390625  L 58.015625 17.1875  L 47.609375 17.1875  L 47.609375 0  L 37.796875 0  L 37.796875 17.1875  L 4.890625 17.1875  L 4.890625 26.703125  z "
                 id="DejaVuSans-52" />
            </defs>
            <g
               transform="translate(308.6375 328.318438)scale(0.1 -0.1)"
               id="g15892">
              <use
                 xlink:href="#DejaVuSans-52"
                 id="use15890" />
            </g>
          </g>
        </g>
        <g
           id="text_5">
          <!-- Condition -->
          <defs
             id="defs15902">
            <path
               d="M 64.40625 67.28125  L 64.40625 56.890625  Q 59.421875 61.53125 53.78125 63.8125  Q 48.140625 66.109375 41.796875 66.109375  Q 29.296875 66.109375 22.65625 58.46875  Q 16.015625 50.828125 16.015625 36.375  Q 16.015625 21.96875 22.65625 14.328125  Q 29.296875 6.6875 41.796875 6.6875  Q 48.140625 6.6875 53.78125 8.984375  Q 59.421875 11.28125 64.40625 15.921875  L 64.40625 5.609375  Q 59.234375 2.09375 53.4375 0.328125  Q 47.65625 -1.421875 41.21875 -1.421875  Q 24.65625 -1.421875 15.125 8.703125  Q 5.609375 18.84375 5.609375 36.375  Q 5.609375 53.953125 15.125 64.078125  Q 24.65625 74.21875 41.21875 74.21875  Q 47.75 74.21875 53.53125 72.484375  Q 59.328125 70.75 64.40625 67.28125  z "
               id="DejaVuSans-67" />
            <path
               d="M 30.609375 48.390625  Q 23.390625 48.390625 19.1875 42.75  Q 14.984375 37.109375 14.984375 27.296875  Q 14.984375 17.484375 19.15625 11.84375  Q 23.34375 6.203125 30.609375 6.203125  Q 37.796875 6.203125 41.984375 11.859375  Q 46.1875 17.53125 46.1875 27.296875  Q 46.1875 37.015625 41.984375 42.703125  Q 37.796875 48.390625 30.609375 48.390625  z M 30.609375 56  Q 42.328125 56 49.015625 48.375  Q 55.71875 40.765625 55.71875 27.296875  Q 55.71875 13.875 49.015625 6.21875  Q 42.328125 -1.421875 30.609375 -1.421875  Q 18.84375 -1.421875 12.171875 6.21875  Q 5.515625 13.875 5.515625 27.296875  Q 5.515625 40.765625 12.171875 48.375  Q 18.84375 56 30.609375 56  z "
               id="DejaVuSans-111" />
            <path
               d="M 54.890625 33.015625  L 54.890625 0  L 45.90625 0  L 45.90625 32.71875  Q 45.90625 40.484375 42.875 44.328125  Q 39.84375 48.1875 33.796875 48.1875  Q 26.515625 48.1875 22.3125 43.546875  Q 18.109375 38.921875 18.109375 30.90625  L 18.109375 0  L 9.078125 0  L 9.078125 54.6875  L 18.109375 54.6875  L 18.109375 46.1875  Q 21.34375 51.125 25.703125 53.5625  Q 30.078125 56 35.796875 56  Q 45.21875 56 50.046875 50.171875  Q 54.890625 44.34375 54.890625 33.015625  z "
               id="DejaVuSans-110" />
            <path
               d="M 45.40625 46.390625  L 45.40625 75.984375  L 54.390625 75.984375  L 54.390625 0  L 45.40625 0  L 45.40625 8.203125  Q 42.578125 3.328125 38.25 0.953125  Q 33.9375 -1.421875 27.875 -1.421875  Q 17.96875 -1.421875 11.734375 6.484375  Q 5.515625 14.40625 5.515625 27.296875  Q 5.515625 40.1875 11.734375 48.09375  Q 17.96875 56 27.875 56  Q 33.9375 56 38.25 53.625  Q 42.578125 51.265625 45.40625 46.390625  z M 14.796875 27.296875  Q 14.796875 17.390625 18.875 11.75  Q 22.953125 6.109375 30.078125 6.109375  Q 37.203125 6.109375 41.296875 11.75  Q 45.40625 17.390625 45.40625 27.296875  Q 45.40625 37.203125 41.296875 42.84375  Q 37.203125 48.484375 30.078125 48.484375  Q 22.953125 48.484375 18.875 42.84375  Q 14.796875 37.203125 14.796875 27.296875  z "
               id="DejaVuSans-100" />
            <path
               d="M 9.421875 54.6875  L 18.40625 54.6875  L 18.40625 0  L 9.421875 0  z M 9.421875 75.984375  L 18.40625 75.984375  L 18.40625 64.59375  L 9.421875 64.59375  z "
               id="DejaVuSans-105" />
            <path
               d="M 18.3125 70.21875  L 18.3125 54.6875  L 36.8125 54.6875  L 36.8125 47.703125  L 18.3125 47.703125  L 18.3125 18.015625  Q 18.3125 11.328125 20.140625 9.421875  Q 21.96875 7.515625 27.59375 7.515625  L 36.8125 7.515625  L 36.8125 0  L 27.59375 0  Q 17.1875 0 13.234375 3.875  Q 9.28125 7.765625 9.28125 18.015625  L 9.28125 47.703125  L 2.6875 47.703125  L 2.6875 54.6875  L 9.28125 54.6875  L 9.28125 70.21875  z "
               id="DejaVuSans-116" />
          </defs>
          <g
             transform="translate(171.444766 345.795781)scale(0.15 -0.15)"
             id="g15922">
            <use
               xlink:href="#DejaVuSans-67"
               id="use15904" />
            <use
               x="69.824219"
               xlink:href="#DejaVuSans-111"
               id="use15906" />
            <use
               x="131.005859"
               xlink:href="#DejaVuSans-110"
               id="use15908" />
            <use
               x="194.384766"
               xlink:href="#DejaVuSans-100"
               id="use15910" />
            <use
               x="257.861328"
               xlink:href="#DejaVuSans-105"
               id="use15912" />
            <use
               x="285.644531"
               xlink:href="#DejaVuSans-116"
               id="use15914" />
            <use
               x="324.853516"
               xlink:href="#DejaVuSans-105"
               id="use15916" />
            <use
               x="352.636719"
               xlink:href="#DejaVuSans-111"
               id="use15918" />
            <use
               x="413.818359"
               xlink:href="#DejaVuSans-110"
               id="use15920" />
          </g>
        </g>
      </g>
      <g
         id="matplotlib.axis_2">
        <g
           id="ytick_1">
          <g
             id="line2d_5">
            <defs
               id="defs15927">
              <path
                 d="M 0 0  L -3.5 0  "
                 id="m52e93e6801"
                 style="stroke:#000000;stroke-width:0.8;" />
            </defs>
            <g
               id="g15931">
              <use
                 style="stroke:#000000;stroke-width:0.8;"
                 x="67.79"
                 xlink:href="#m52e93e6801"
                 y="279.826842"
                 id="use15929" />
            </g>
          </g>
          <g
             id="text_6">
            <!-- 2000 -->
            <defs
               id="defs15935">
              <path
                 d="M 31.78125 66.40625  Q 24.171875 66.40625 20.328125 58.90625  Q 16.5 51.421875 16.5 36.375  Q 16.5 21.390625 20.328125 13.890625  Q 24.171875 6.390625 31.78125 6.390625  Q 39.453125 6.390625 43.28125 13.890625  Q 47.125 21.390625 47.125 36.375  Q 47.125 51.421875 43.28125 58.90625  Q 39.453125 66.40625 31.78125 66.40625  z M 31.78125 74.21875  Q 44.046875 74.21875 50.515625 64.515625  Q 56.984375 54.828125 56.984375 36.375  Q 56.984375 17.96875 50.515625 8.265625  Q 44.046875 -1.421875 31.78125 -1.421875  Q 19.53125 -1.421875 13.0625 8.265625  Q 6.59375 17.96875 6.59375 36.375  Q 6.59375 54.828125 13.0625 64.515625  Q 19.53125 74.21875 31.78125 74.21875  z "
                 id="DejaVuSans-48" />
            </defs>
            <g
               transform="translate(35.34 283.626061)scale(0.1 -0.1)"
               id="g15945">
              <use
                 xlink:href="#DejaVuSans-50"
                 id="use15937" />
              <use
                 x="63.623047"
                 xlink:href="#DejaVuSans-48"
                 id="use15939" />
              <use
                 x="127.246094"
                 xlink:href="#DejaVuSans-48"
                 id="use15941" />
              <use
                 x="190.869141"
                 xlink:href="#DejaVuSans-48"
                 id="use15943" />
            </g>
          </g>
        </g>
        <g
           id="ytick_2">
          <g
             id="line2d_6">
            <g
               id="g15951">
              <use
                 style="stroke:#000000;stroke-width:0.8;"
                 x="67.79"
                 xlink:href="#m52e93e6801"
                 y="237.117822"
                 id="use15949" />
            </g>
          </g>
          <g
             id="text_7">
            <!-- 4000 -->
            <g
               transform="translate(35.34 240.917041)scale(0.1 -0.1)"
               id="g15962">
              <use
                 xlink:href="#DejaVuSans-52"
                 id="use15954" />
              <use
                 x="63.623047"
                 xlink:href="#DejaVuSans-48"
                 id="use15956" />
              <use
                 x="127.246094"
                 xlink:href="#DejaVuSans-48"
                 id="use15958" />
              <use
                 x="190.869141"
                 xlink:href="#DejaVuSans-48"
                 id="use15960" />
            </g>
          </g>
        </g>
        <g
           id="ytick_3">
          <g
             id="line2d_7">
            <g
               id="g15968">
              <use
                 style="stroke:#000000;stroke-width:0.8;"
                 x="67.79"
                 xlink:href="#m52e93e6801"
                 y="194.408802"
                 id="use15966" />
            </g>
          </g>
          <g
             id="text_8">
            <!-- 6000 -->
            <defs
               id="defs15972">
              <path
                 d="M 33.015625 40.375  Q 26.375 40.375 22.484375 35.828125  Q 18.609375 31.296875 18.609375 23.390625  Q 18.609375 15.53125 22.484375 10.953125  Q 26.375 6.390625 33.015625 6.390625  Q 39.65625 6.390625 43.53125 10.953125  Q 47.40625 15.53125 47.40625 23.390625  Q 47.40625 31.296875 43.53125 35.828125  Q 39.65625 40.375 33.015625 40.375  z M 52.59375 71.296875  L 52.59375 62.3125  Q 48.875 64.0625 45.09375 64.984375  Q 41.3125 65.921875 37.59375 65.921875  Q 27.828125 65.921875 22.671875 59.328125  Q 17.53125 52.734375 16.796875 39.40625  Q 19.671875 43.65625 24.015625 45.921875  Q 28.375 48.1875 33.59375 48.1875  Q 44.578125 48.1875 50.953125 41.515625  Q 57.328125 34.859375 57.328125 23.390625  Q 57.328125 12.15625 50.6875 5.359375  Q 44.046875 -1.421875 33.015625 -1.421875  Q 20.359375 -1.421875 13.671875 8.265625  Q 6.984375 17.96875 6.984375 36.375  Q 6.984375 53.65625 15.1875 63.9375  Q 23.390625 74.21875 37.203125 74.21875  Q 40.921875 74.21875 44.703125 73.484375  Q 48.484375 72.75 52.59375 71.296875  z "
                 id="DejaVuSans-54" />
            </defs>
            <g
               transform="translate(35.34 198.208021)scale(0.1 -0.1)"
               id="g15982">
              <use
                 xlink:href="#DejaVuSans-54"
                 id="use15974" />
              <use
                 x="63.623047"
                 xlink:href="#DejaVuSans-48"
                 id="use15976" />
              <use
                 x="127.246094"
                 xlink:href="#DejaVuSans-48"
                 id="use15978" />
              <use
                 x="190.869141"
                 xlink:href="#DejaVuSans-48"
                 id="use15980" />
            </g>
          </g>
        </g>
        <g
           id="ytick_4">
          <g
             id="line2d_8">
            <g
               id="g15988">
              <use
                 style="stroke:#000000;stroke-width:0.8;"
                 x="67.79"
                 xlink:href="#m52e93e6801"
                 y="151.699782"
                 id="use15986" />
            </g>
          </g>
          <g
             id="text_9">
            <!-- 8000 -->
            <defs
               id="defs15992">
              <path
                 d="M 31.78125 34.625  Q 24.75 34.625 20.71875 30.859375  Q 16.703125 27.09375 16.703125 20.515625  Q 16.703125 13.921875 20.71875 10.15625  Q 24.75 6.390625 31.78125 6.390625  Q 38.8125 6.390625 42.859375 10.171875  Q 46.921875 13.96875 46.921875 20.515625  Q 46.921875 27.09375 42.890625 30.859375  Q 38.875 34.625 31.78125 34.625  z M 21.921875 38.8125  Q 15.578125 40.375 12.03125 44.71875  Q 8.5 49.078125 8.5 55.328125  Q 8.5 64.0625 14.71875 69.140625  Q 20.953125 74.21875 31.78125 74.21875  Q 42.671875 74.21875 48.875 69.140625  Q 55.078125 64.0625 55.078125 55.328125  Q 55.078125 49.078125 51.53125 44.71875  Q 48 40.375 41.703125 38.8125  Q 48.828125 37.15625 52.796875 32.3125  Q 56.78125 27.484375 56.78125 20.515625  Q 56.78125 9.90625 50.3125 4.234375  Q 43.84375 -1.421875 31.78125 -1.421875  Q 19.734375 -1.421875 13.25 4.234375  Q 6.78125 9.90625 6.78125 20.515625  Q 6.78125 27.484375 10.78125 32.3125  Q 14.796875 37.15625 21.921875 38.8125  z M 18.3125 54.390625  Q 18.3125 48.734375 21.84375 45.5625  Q 25.390625 42.390625 31.78125 42.390625  Q 38.140625 42.390625 41.71875 45.5625  Q 45.3125 48.734375 45.3125 54.390625  Q 45.3125 60.0625 41.71875 63.234375  Q 38.140625 66.40625 31.78125 66.40625  Q 25.390625 66.40625 21.84375 63.234375  Q 18.3125 60.0625 18.3125 54.390625  z "
                 id="DejaVuSans-56" />
            </defs>
            <g
               transform="translate(35.34 155.499001)scale(0.1 -0.1)"
               id="g16002">
              <use
                 xlink:href="#DejaVuSans-56"
                 id="use15994" />
              <use
                 x="63.623047"
                 xlink:href="#DejaVuSans-48"
                 id="use15996" />
              <use
                 x="127.246094"
                 xlink:href="#DejaVuSans-48"
                 id="use15998" />
              <use
                 x="190.869141"
                 xlink:href="#DejaVuSans-48"
                 id="use16000" />
            </g>
          </g>
        </g>
        <g
           id="ytick_5">
          <g
             id="line2d_9">
            <g
               id="g16008">
              <use
                 style="stroke:#000000;stroke-width:0.8;"
                 x="67.79"
                 xlink:href="#m52e93e6801"
                 y="108.990762"
                 id="use16006" />
            </g>
          </g>
          <g
             id="text_10">
            <!-- 10000 -->
            <g
               transform="translate(28.9775 112.789981)scale(0.1 -0.1)"
               id="g16021">
              <use
                 xlink:href="#DejaVuSans-49"
                 id="use16011" />
              <use
                 x="63.623047"
                 xlink:href="#DejaVuSans-48"
                 id="use16013" />
              <use
                 x="127.246094"
                 xlink:href="#DejaVuSans-48"
                 id="use16015" />
              <use
                 x="190.869141"
                 xlink:href="#DejaVuSans-48"
                 id="use16017" />
              <use
                 x="254.492188"
                 xlink:href="#DejaVuSans-48"
                 id="use16019" />
            </g>
          </g>
        </g>
        <g
           id="ytick_6">
          <g
             id="line2d_10">
            <g
               id="g16027">
              <use
                 style="stroke:#000000;stroke-width:0.8;"
                 x="67.79"
                 xlink:href="#m52e93e6801"
                 y="66.281742"
                 id="use16025" />
            </g>
          </g>
          <g
             id="text_11">
            <!-- 12000 -->
            <g
               transform="translate(28.9775 70.080961)scale(0.1 -0.1)"
               id="g16040">
              <use
                 xlink:href="#DejaVuSans-49"
                 id="use16030" />
              <use
                 x="63.623047"
                 xlink:href="#DejaVuSans-50"
                 id="use16032" />
              <use
                 x="127.246094"
                 xlink:href="#DejaVuSans-48"
                 id="use16034" />
              <use
                 x="190.869141"
                 xlink:href="#DejaVuSans-48"
                 id="use16036" />
              <use
                 x="254.492188"
                 xlink:href="#DejaVuSans-48"
                 id="use16038" />
            </g>
          </g>
        </g>
        <g
           id="ytick_7">
          <g
             id="line2d_11">
            <g
               id="g16046">
              <use
                 style="stroke:#000000;stroke-width:0.8;"
                 x="67.79"
                 xlink:href="#m52e93e6801"
                 y="23.572722"
                 id="use16044" />
            </g>
          </g>
          <g
             id="text_12">
            <!-- 14000 -->
            <g
               transform="translate(28.9775 27.371941)scale(0.1 -0.1)"
               id="g16059">
              <use
                 xlink:href="#DejaVuSans-49"
                 id="use16049" />
              <use
                 x="63.623047"
                 xlink:href="#DejaVuSans-52"
                 id="use16051" />
              <use
                 x="127.246094"
                 xlink:href="#DejaVuSans-48"
                 id="use16053" />
              <use
                 x="190.869141"
                 xlink:href="#DejaVuSans-48"
                 id="use16055" />
              <use
                 x="254.492188"
                 xlink:href="#DejaVuSans-48"
                 id="use16057" />
            </g>
          </g>
        </g>
        <g
           id="text_13">
          <!-- Average Task Time (Time (ms)) -->
          <defs
             id="defs16076">
            <path
               d="M 34.1875 63.1875  L 20.796875 26.90625  L 47.609375 26.90625  z M 28.609375 72.90625  L 39.796875 72.90625  L 67.578125 0  L 57.328125 0  L 50.6875 18.703125  L 17.828125 18.703125  L 11.1875 0  L 0.78125 0  z "
               id="DejaVuSans-65" />
            <path
               d="M 2.984375 54.6875  L 12.5 54.6875  L 29.59375 8.796875  L 46.6875 54.6875  L 56.203125 54.6875  L 35.6875 0  L 23.484375 0  z "
               id="DejaVuSans-118" />
            <path
               d="M 56.203125 29.59375  L 56.203125 25.203125  L 14.890625 25.203125  Q 15.484375 15.921875 20.484375 11.0625  Q 25.484375 6.203125 34.421875 6.203125  Q 39.59375 6.203125 44.453125 7.46875  Q 49.3125 8.734375 54.109375 11.28125  L 54.109375 2.78125  Q 49.265625 0.734375 44.1875 -0.34375  Q 39.109375 -1.421875 33.890625 -1.421875  Q 20.796875 -1.421875 13.15625 6.1875  Q 5.515625 13.8125 5.515625 26.8125  Q 5.515625 40.234375 12.765625 48.109375  Q 20.015625 56 32.328125 56  Q 43.359375 56 49.78125 48.890625  Q 56.203125 41.796875 56.203125 29.59375  z M 47.21875 32.234375  Q 47.125 39.59375 43.09375 43.984375  Q 39.0625 48.390625 32.421875 48.390625  Q 24.90625 48.390625 20.390625 44.140625  Q 15.875 39.890625 15.1875 32.171875  z "
               id="DejaVuSans-101" />
            <path
               d="M 41.109375 46.296875  Q 39.59375 47.171875 37.8125 47.578125  Q 36.03125 48 33.890625 48  Q 26.265625 48 22.1875 43.046875  Q 18.109375 38.09375 18.109375 28.8125  L 18.109375 0  L 9.078125 0  L 9.078125 54.6875  L 18.109375 54.6875  L 18.109375 46.1875  Q 20.953125 51.171875 25.484375 53.578125  Q 30.03125 56 36.53125 56  Q 37.453125 56 38.578125 55.875  Q 39.703125 55.765625 41.0625 55.515625  z "
               id="DejaVuSans-114" />
            <path
               d="M 34.28125 27.484375  Q 23.390625 27.484375 19.1875 25  Q 14.984375 22.515625 14.984375 16.5  Q 14.984375 11.71875 18.140625 8.90625  Q 21.296875 6.109375 26.703125 6.109375  Q 34.1875 6.109375 38.703125 11.40625  Q 43.21875 16.703125 43.21875 25.484375  L 43.21875 27.484375  z M 52.203125 31.203125  L 52.203125 0  L 43.21875 0  L 43.21875 8.296875  Q 40.140625 3.328125 35.546875 0.953125  Q 30.953125 -1.421875 24.3125 -1.421875  Q 15.921875 -1.421875 10.953125 3.296875  Q 6 8.015625 6 15.921875  Q 6 25.140625 12.171875 29.828125  Q 18.359375 34.515625 30.609375 34.515625  L 43.21875 34.515625  L 43.21875 35.40625  Q 43.21875 41.609375 39.140625 45  Q 35.0625 48.390625 27.6875 48.390625  Q 23 48.390625 18.546875 47.265625  Q 14.109375 46.140625 10.015625 43.890625  L 10.015625 52.203125  Q 14.9375 54.109375 19.578125 55.046875  Q 24.21875 56 28.609375 56  Q 40.484375 56 46.34375 49.84375  Q 52.203125 43.703125 52.203125 31.203125  z "
               id="DejaVuSans-97" />
            <path
               d="M 45.40625 27.984375  Q 45.40625 37.75 41.375 43.109375  Q 37.359375 48.484375 30.078125 48.484375  Q 22.859375 48.484375 18.828125 43.109375  Q 14.796875 37.75 14.796875 27.984375  Q 14.796875 18.265625 18.828125 12.890625  Q 22.859375 7.515625 30.078125 7.515625  Q 37.359375 7.515625 41.375 12.890625  Q 45.40625 18.265625 45.40625 27.984375  z M 54.390625 6.78125  Q 54.390625 -7.171875 48.1875 -13.984375  Q 42 -20.796875 29.203125 -20.796875  Q 24.46875 -20.796875 20.265625 -20.09375  Q 16.0625 -19.390625 12.109375 -17.921875  L 12.109375 -9.1875  Q 16.0625 -11.328125 19.921875 -12.34375  Q 23.78125 -13.375 27.78125 -13.375  Q 36.625 -13.375 41.015625 -8.765625  Q 45.40625 -4.15625 45.40625 5.171875  L 45.40625 9.625  Q 42.625 4.78125 38.28125 2.390625  Q 33.9375 0 27.875 0  Q 17.828125 0 11.671875 7.65625  Q 5.515625 15.328125 5.515625 27.984375  Q 5.515625 40.671875 11.671875 48.328125  Q 17.828125 56 27.875 56  Q 33.9375 56 38.28125 53.609375  Q 42.625 51.21875 45.40625 46.390625  L 45.40625 54.6875  L 54.390625 54.6875  z "
               id="DejaVuSans-103" />
            <path
               id="DejaVuSans-32" />
            <path
               d="M -0.296875 72.90625  L 61.375 72.90625  L 61.375 64.59375  L 35.5 64.59375  L 35.5 0  L 25.59375 0  L 25.59375 64.59375  L -0.296875 64.59375  z "
               id="DejaVuSans-84" />
            <path
               d="M 44.28125 53.078125  L 44.28125 44.578125  Q 40.484375 46.53125 36.375 47.5  Q 32.28125 48.484375 27.875 48.484375  Q 21.1875 48.484375 17.84375 46.4375  Q 14.5 44.390625 14.5 40.28125  Q 14.5 37.15625 16.890625 35.375  Q 19.28125 33.59375 26.515625 31.984375  L 29.59375 31.296875  Q 39.15625 29.25 43.1875 25.515625  Q 47.21875 21.78125 47.21875 15.09375  Q 47.21875 7.46875 41.1875 3.015625  Q 35.15625 -1.421875 24.609375 -1.421875  Q 20.21875 -1.421875 15.453125 -0.5625  Q 10.6875 0.296875 5.421875 2  L 5.421875 11.28125  Q 10.40625 8.6875 15.234375 7.390625  Q 20.0625 6.109375 24.8125 6.109375  Q 31.15625 6.109375 34.5625 8.28125  Q 37.984375 10.453125 37.984375 14.40625  Q 37.984375 18.0625 35.515625 20.015625  Q 33.0625 21.96875 24.703125 23.78125  L 21.578125 24.515625  Q 13.234375 26.265625 9.515625 29.90625  Q 5.8125 33.546875 5.8125 39.890625  Q 5.8125 47.609375 11.28125 51.796875  Q 16.75 56 26.8125 56  Q 31.78125 56 36.171875 55.265625  Q 40.578125 54.546875 44.28125 53.078125  z "
               id="DejaVuSans-115" />
            <path
               d="M 9.078125 75.984375  L 18.109375 75.984375  L 18.109375 31.109375  L 44.921875 54.6875  L 56.390625 54.6875  L 27.390625 29.109375  L 57.625 0  L 45.90625 0  L 18.109375 26.703125  L 18.109375 0  L 9.078125 0  z "
               id="DejaVuSans-107" />
            <path
               d="M 52 44.1875  Q 55.375 50.25 60.0625 53.125  Q 64.75 56 71.09375 56  Q 79.640625 56 84.28125 50.015625  Q 88.921875 44.046875 88.921875 33.015625  L 88.921875 0  L 79.890625 0  L 79.890625 32.71875  Q 79.890625 40.578125 77.09375 44.375  Q 74.3125 48.1875 68.609375 48.1875  Q 61.625 48.1875 57.5625 43.546875  Q 53.515625 38.921875 53.515625 30.90625  L 53.515625 0  L 44.484375 0  L 44.484375 32.71875  Q 44.484375 40.625 41.703125 44.40625  Q 38.921875 48.1875 33.109375 48.1875  Q 26.21875 48.1875 22.15625 43.53125  Q 18.109375 38.875 18.109375 30.90625  L 18.109375 0  L 9.078125 0  L 9.078125 54.6875  L 18.109375 54.6875  L 18.109375 46.1875  Q 21.1875 51.21875 25.484375 53.609375  Q 29.78125 56 35.6875 56  Q 41.65625 56 45.828125 52.96875  Q 50 49.953125 52 44.1875  z "
               id="DejaVuSans-109" />
            <path
               d="M 31 75.875  Q 24.46875 64.65625 21.28125 53.65625  Q 18.109375 42.671875 18.109375 31.390625  Q 18.109375 20.125 21.3125 9.0625  Q 24.515625 -2 31 -13.1875  L 23.1875 -13.1875  Q 15.875 -1.703125 12.234375 9.375  Q 8.59375 20.453125 8.59375 31.390625  Q 8.59375 42.28125 12.203125 53.3125  Q 15.828125 64.359375 23.1875 75.875  z "
               id="DejaVuSans-40" />
            <path
               d="M 8.015625 75.875  L 15.828125 75.875  Q 23.140625 64.359375 26.78125 53.3125  Q 30.421875 42.28125 30.421875 31.390625  Q 30.421875 20.453125 26.78125 9.375  Q 23.140625 -1.703125 15.828125 -13.1875  L 8.015625 -13.1875  Q 14.5 -2 17.703125 9.0625  Q 20.90625 20.125 20.90625 31.390625  Q 20.90625 42.671875 17.703125 53.65625  Q 14.5 64.65625 8.015625 75.875  z "
               id="DejaVuSans-41" />
          </defs>
          <g
             transform="translate(21.857969 281.77625)rotate(-90)scale(0.15 -0.15)"
             id="g16136">
            <use
               xlink:href="#DejaVuSans-65"
               id="use16078" />
            <use
               x="68.330078"
               xlink:href="#DejaVuSans-118"
               id="use16080" />
            <use
               x="127.509766"
               xlink:href="#DejaVuSans-101"
               id="use16082" />
            <use
               x="189.033203"
               xlink:href="#DejaVuSans-114"
               id="use16084" />
            <use
               x="230.146484"
               xlink:href="#DejaVuSans-97"
               id="use16086" />
            <use
               x="291.425781"
               xlink:href="#DejaVuSans-103"
               id="use16088" />
            <use
               x="354.902344"
               xlink:href="#DejaVuSans-101"
               id="use16090" />
            <use
               x="416.425781"
               xlink:href="#DejaVuSans-32"
               id="use16092" />
            <use
               x="448.212891"
               xlink:href="#DejaVuSans-84"
               id="use16094" />
            <use
               x="509.046875"
               xlink:href="#DejaVuSans-97"
               id="use16096" />
            <use
               x="570.326172"
               xlink:href="#DejaVuSans-115"
               id="use16098" />
            <use
               x="622.425781"
               xlink:href="#DejaVuSans-107"
               id="use16100" />
            <use
               x="680.335938"
               xlink:href="#DejaVuSans-32"
               id="use16102" />
            <use
               x="712.123047"
               xlink:href="#DejaVuSans-84"
               id="use16104" />
            <use
               x="773.160156"
               xlink:href="#DejaVuSans-105"
               id="use16106" />
            <use
               x="800.943359"
               xlink:href="#DejaVuSans-109"
               id="use16108" />
            <use
               x="898.355469"
               xlink:href="#DejaVuSans-101"
               id="use16110" />
            <use
               x="959.878906"
               xlink:href="#DejaVuSans-32"
               id="use16112" />
            <use
               x="991.666016"
               xlink:href="#DejaVuSans-40"
               id="use16114" />
            <use
               x="1030.679688"
               xlink:href="#DejaVuSans-84"
               id="use16116" />
            <use
               x="1091.716797"
               xlink:href="#DejaVuSans-105"
               id="use16118" />
            <use
               x="1119.5"
               xlink:href="#DejaVuSans-109"
               id="use16120" />
            <use
               x="1216.912109"
               xlink:href="#DejaVuSans-101"
               id="use16122" />
            <use
               x="1278.435547"
               xlink:href="#DejaVuSans-32"
               id="use16124" />
            <use
               x="1310.222656"
               xlink:href="#DejaVuSans-40"
               id="use16126" />
            <use
               x="1349.236328"
               xlink:href="#DejaVuSans-109"
               id="use16128" />
            <use
               x="1446.648438"
               xlink:href="#DejaVuSans-115"
               id="use16130" />
            <use
               x="1498.748047"
               xlink:href="#DejaVuSans-41"
               id="use16132" />
            <use
               x="1537.761719"
               xlink:href="#DejaVuSans-41"
               id="use16134" />
          </g>
        </g>
      </g>
      <g
         id="line2d_12">
        <path
           clip-path="url(#pf143607665)"
           d="M 86.963688 262.095646  L 118.338813 262.095646  L 118.338813 225.196046  L 86.963688 225.196046  L 86.963688 262.095646  "
           style="fill:none;stroke:#000000;stroke-linecap:square;"
           id="path16140" />
      </g>
      <g
         id="line2d_13">
        <path
           clip-path="url(#pf143607665)"
           d="M 102.65125 262.095646  L 102.65125 288.79375  "
           style="fill:none;stroke:#000000;stroke-linecap:square;"
           id="path16143" />
      </g>
      <g
         id="line2d_14">
        <path
           clip-path="url(#pf143607665)"
           d="M 102.65125 225.196046  L 102.65125 187.850484  "
           style="fill:none;stroke:#000000;stroke-linecap:square;"
           id="path16146" />
      </g>
      <g
         id="line2d_15">
        <path
           clip-path="url(#pf143607665)"
           d="M 94.807469 288.79375  L 110.495031 288.79375  "
           style="fill:none;stroke:#000000;stroke-linecap:square;"
           id="path16149" />
      </g>
      <g
         id="line2d_16">
        <path
           clip-path="url(#pf143607665)"
           d="M 94.807469 187.850484  L 110.495031 187.850484  "
           style="fill:none;stroke:#000000;stroke-linecap:square;"
           id="path16152" />
      </g>
      <g
         id="line2d_17">
        <defs
           id="defs16156">
          <path
             d="M 0 3  C 0.795609 3 1.55874 2.683901 2.12132 2.12132  C 2.683901 1.55874 3 0.795609 3 0  C 3 -0.795609 2.683901 -1.55874 2.12132 -2.12132  C 1.55874 -2.683901 0.795609 -3 0 -3  C -0.795609 -3 -1.55874 -2.683901 -2.12132 -2.12132  C -2.683901 -1.55874 -3 -0.795609 -3 0  C -3 0.795609 -2.683901 1.55874 -2.12132 2.12132  C -1.55874 2.683901 -0.795609 3 0 3  z "
             id="m274adffaf6"
             style="stroke:#000000;" />
        </defs>
        <g
           clip-path="url(#pf143607665)"
           id="g16166">
          <use
             style="fill-opacity:0;stroke:#000000;"
             x="102.65125"
             xlink:href="#m274adffaf6"
             y="153.99564"
             id="use16158" />
          <use
             style="fill-opacity:0;stroke:#000000;"
             x="102.65125"
             xlink:href="#m274adffaf6"
             y="153.979252"
             id="use16160" />
          <use
             style="fill-opacity:0;stroke:#000000;"
             x="102.65125"
             xlink:href="#m274adffaf6"
             y="166.109607"
             id="use16162" />
          <use
             style="fill-opacity:0;stroke:#000000;"
             x="102.65125"
             xlink:href="#m274adffaf6"
             y="168.303162"
             id="use16164" />
        </g>
      </g>
      <g
         id="line2d_18">
        <path
           clip-path="url(#pf143607665)"
           d="M 156.686188 274.050944  L 188.061313 274.050944  L 188.061313 234.977653  L 156.686188 234.977653  L 156.686188 274.050944  "
           style="fill:none;stroke:#000000;stroke-linecap:square;"
           id="path16169" />
      </g>
      <g
         id="line2d_19">
        <path
           clip-path="url(#pf143607665)"
           d="M 172.37375 274.050944  L 172.37375 299.184953  "
           style="fill:none;stroke:#000000;stroke-linecap:square;"
           id="path16172" />
      </g>
      <g
         id="line2d_20">
        <path
           clip-path="url(#pf143607665)"
           d="M 172.37375 234.977653  L 172.37375 183.140077  "
           style="fill:none;stroke:#000000;stroke-linecap:square;"
           id="path16175" />
      </g>
      <g
         id="line2d_21">
        <path
           clip-path="url(#pf143607665)"
           d="M 164.529969 299.184953  L 180.217531 299.184953  "
           style="fill:none;stroke:#000000;stroke-linecap:square;"
           id="path16178" />
      </g>
      <g
         id="line2d_22">
        <path
           clip-path="url(#pf143607665)"
           d="M 164.529969 183.140077  L 180.217531 183.140077  "
           style="fill:none;stroke:#000000;stroke-linecap:square;"
           id="path16181" />
      </g>
      <g
         id="line2d_23">
        <g
           clip-path="url(#pf143607665)"
           id="g16190">
          <use
             style="fill-opacity:0;stroke:#000000;"
             x="172.37375"
             xlink:href="#m274adffaf6"
             y="170.137167"
             id="use16184" />
          <use
             style="fill-opacity:0;stroke:#000000;"
             x="172.37375"
             xlink:href="#m274adffaf6"
             y="26.974545"
             id="use16186" />
          <use
             style="fill-opacity:0;stroke:#000000;"
             x="172.37375"
             xlink:href="#m274adffaf6"
             y="113.639589"
             id="use16188" />
        </g>
      </g>
      <g
         id="line2d_24">
        <path
           clip-path="url(#pf143607665)"
           d="M 226.408687 278.725346  L 257.783813 278.725346  L 257.783813 231.167984  L 226.408687 231.167984  L 226.408687 278.725346  "
           style="fill:none;stroke:#000000;stroke-linecap:square;"
           id="path16193" />
      </g>
      <g
         id="line2d_25">
        <path
           clip-path="url(#pf143607665)"
           d="M 242.09625 278.725346  L 242.09625 300.065455  "
           style="fill:none;stroke:#000000;stroke-linecap:square;"
           id="path16196" />
      </g>
      <g
         id="line2d_26">
        <path
           clip-path="url(#pf143607665)"
           d="M 242.09625 231.167984  L 242.09625 173.024992  "
           style="fill:none;stroke:#000000;stroke-linecap:square;"
           id="path16199" />
      </g>
      <g
         id="line2d_27">
        <path
           clip-path="url(#pf143607665)"
           d="M 234.252469 300.065455  L 249.940031 300.065455  "
           style="fill:none;stroke:#000000;stroke-linecap:square;"
           id="path16202" />
      </g>
      <g
         id="line2d_28">
        <path
           clip-path="url(#pf143607665)"
           d="M 234.252469 173.024992  L 249.940031 173.024992  "
           style="fill:none;stroke:#000000;stroke-linecap:square;"
           id="path16205" />
      </g>
      <g
         id="line2d_29">
        <g
           clip-path="url(#pf143607665)"
           id="g16218">
          <use
             style="fill-opacity:0;stroke:#000000;"
             x="242.09625"
             xlink:href="#m274adffaf6"
             y="33.410695"
             id="use16208" />
          <use
             style="fill-opacity:0;stroke:#000000;"
             x="242.09625"
             xlink:href="#m274adffaf6"
             y="111.098403"
             id="use16210" />
          <use
             style="fill-opacity:0;stroke:#000000;"
             x="242.09625"
             xlink:href="#m274adffaf6"
             y="138.598542"
             id="use16212" />
          <use
             style="fill-opacity:0;stroke:#000000;"
             x="242.09625"
             xlink:href="#m274adffaf6"
             y="139.931461"
             id="use16214" />
          <use
             style="fill-opacity:0;stroke:#000000;"
             x="242.09625"
             xlink:href="#m274adffaf6"
             y="136.999933"
             id="use16216" />
        </g>
      </g>
      <g
         id="line2d_30">
        <path
           clip-path="url(#pf143607665)"
           d="M 296.131188 270.758128  L 327.506312 270.758128  L 327.506312 238.25855  L 296.131188 238.25855  L 296.131188 270.758128  "
           style="fill:none;stroke:#000000;stroke-linecap:square;"
           id="path16221" />
      </g>
      <g
         id="line2d_31">
        <path
           clip-path="url(#pf143607665)"
           d="M 311.81875 270.758128  L 311.81875 298.942108  "
           style="fill:none;stroke:#000000;stroke-linecap:square;"
           id="path16224" />
      </g>
      <g
         id="line2d_32">
        <path
           clip-path="url(#pf143607665)"
           d="M 311.81875 238.25855  L 311.81875 194.048258  "
           style="fill:none;stroke:#000000;stroke-linecap:square;"
           id="path16227" />
      </g>
      <g
         id="line2d_33">
        <path
           clip-path="url(#pf143607665)"
           d="M 303.974969 298.942108  L 319.662531 298.942108  "
           style="fill:none;stroke:#000000;stroke-linecap:square;"
           id="path16230" />
      </g>
      <g
         id="line2d_34">
        <path
           clip-path="url(#pf143607665)"
           d="M 303.974969 194.048258  L 319.662531 194.048258  "
           style="fill:none;stroke:#000000;stroke-linecap:square;"
           id="path16233" />
      </g>
      <g
         id="line2d_35">
        <g
           clip-path="url(#pf143607665)"
           id="g16246">
          <use
             style="fill-opacity:0;stroke:#000000;"
             x="311.81875"
             xlink:href="#m274adffaf6"
             y="185.986186"
             id="use16236" />
          <use
             style="fill-opacity:0;stroke:#000000;"
             x="311.81875"
             xlink:href="#m274adffaf6"
             y="163.744222"
             id="use16238" />
          <use
             style="fill-opacity:0;stroke:#000000;"
             x="311.81875"
             xlink:href="#m274adffaf6"
             y="127.205166"
             id="use16240" />
          <use
             style="fill-opacity:0;stroke:#000000;"
             x="311.81875"
             xlink:href="#m274adffaf6"
             y="98.106418"
             id="use16242" />
          <use
             style="fill-opacity:0;stroke:#000000;"
             x="311.81875"
             xlink:href="#m274adffaf6"
             y="176.762528"
             id="use16244" />
        </g>
      </g>
      <g
         id="line2d_36">
        <path
           clip-path="url(#pf143607665)"
           d="M 86.963688 249.379284  L 118.338813 249.379284  "
           style="fill:none;stroke:#ff7f0e;stroke-linecap:square;"
           id="path16249" />
      </g>
      <g
         id="line2d_37">
        <path
           clip-path="url(#pf143607665)"
           d="M 156.686188 259.589222  L 188.061313 259.589222  "
           style="fill:none;stroke:#ff7f0e;stroke-linecap:square;"
           id="path16252" />
      </g>
      <g
         id="line2d_38">
        <path
           clip-path="url(#pf143607665)"
           d="M 226.408687 268.534031  L 257.783813 268.534031  "
           style="fill:none;stroke:#ff7f0e;stroke-linecap:square;"
           id="path16255" />
      </g>
      <g
         id="line2d_39">
        <path
           clip-path="url(#pf143607665)"
           d="M 296.131188 252.267109  L 327.506312 252.267109  "
           style="fill:none;stroke:#ff7f0e;stroke-linecap:square;"
           id="path16258" />
      </g>
      <g
         id="patch_3">
        <path
           d="M 67.79 313.72  L 67.79 13.32  "
           style="fill:none;stroke:#000000;stroke-linecap:square;stroke-linejoin:miter;stroke-width:0.8;"
           id="path16261" />
      </g>
      <g
         id="patch_4">
        <path
           d="M 346.68 313.72  L 346.68 13.32  "
           style="fill:none;stroke:#000000;stroke-linecap:square;stroke-linejoin:miter;stroke-width:0.8;"
           id="path16264" />
      </g>
      <g
         id="patch_5">
        <path
           d="M 67.79 313.72  L 346.68 313.72  "
           style="fill:none;stroke:#000000;stroke-linecap:square;stroke-linejoin:miter;stroke-width:0.8;"
           id="path16267" />
      </g>
      <g
         id="patch_6">
        <path
           d="M 67.79 13.32  L 346.68 13.32  "
           style="fill:none;stroke:#000000;stroke-linecap:square;stroke-linejoin:miter;stroke-width:0.8;"
           id="path16270" />
      </g>
    </g>
  </g>
  <defs
     id="defs16278">
    <clipPath
       id="pf143607665">
      <rect
         height="300.4"
         width="278.89"
         x="67.79"
         y="13.32"
         id="rect16275" />
    </clipPath>
  </defs>
</svg>
